<?xml version="1.0" encoding="UTF-8" standalone="no"?>
<svg
   xmlns:dc="http://purl.org/dc/elements/1.1/"
   xmlns:cc="http://creativecommons.org/ns#"
   xmlns:rdf="http://www.w3.org/1999/02/22-rdf-syntax-ns#"
   xmlns:svg="http://www.w3.org/2000/svg"
   xmlns="http://www.w3.org/2000/svg"
   version="1.1"
   id="svg8471"
   viewBox="0 0 1080.2585 1001.5111"
   height="282.64868mm"
   width="304.87296mm">
  <defs
     id="defs8473" />
  <metadata
     id="metadata8476">
    <rdf:RDF>
      <cc:Work
         rdf:about="">
        <dc:format>image/svg+xml</dc:format>
        <dc:type
           rdf:resource="http://purl.org/dc/dcmitype/StillImage" />
        <dc:title></dc:title>
      </cc:Work>
    </rdf:RDF>
  </metadata>
  <g
     transform="translate(188.99957,-78.224616)"
     id="layer1">
    <g
       id="g9184">
      <g
         transform="translate(-14.294431,0.06914571)"
         id="layer2">
        <path
           d="M 359.26,78.178 C 242.3,77.466 126.44,125.09 78.8,239.668 c -20.557,49.44 -0.735,141.27 12.783,176.18 21.192,13.537 26.894,39.817 34.161,57.333 10.052,24.23 -19.697,77.513 -19.111,98.184 0.75809,26.754 4.7618,41.531 21.5,43.478 16.946,1.9706 34.026,0.17277 37.147,-6.5695 2.8677,-6.1938 77.668,-7.4483 76.445,27.353 -8.1925,15.082 -4.9637,25.942 10.302,25.882 3.9559,-0.0153 4.6672,-9.1157 6.0621,-19.074 2.1448,-15.312 13.1,-13.213 13.429,-9.2655 0.0872,-0.22972 2.5477,10.56 1.5699,20.107 -0.51776,5.0546 -5.5834,8.8309 -4.4001,14.615 -2.1514,9.0321 7.7783,6.4226 13.991,10.043 8.3031,4.8385 12.258,10.349 21.835,8.8001 4.3023,-0.69587 2.0987,-20.502 4.7557,-28.143 2.5035,-7.1995 10.868,-7.4266 11.579,1.5555 0.58175,7.3461 -1.6749,12.698 -0.19034,16.357 6.5872,16.238 23.693,9.3984 29.085,2.9382 3.0706,-3.6793 3.511,-33.944 5.3182,-36.41 3.3264,-4.5402 8.4062,24.108 7.4226,19.179 -2.7511,-13.786 7.1667,9.0951 7.1667,19.64 0,10.004 38.35,6.3003 30.032,-12.576 -3.4102,-7.7384 8.9523,1.9934 8.5659,-0.92143 -0.84834,-6.3991 0.37114,8.1503 12.286,13.617 23.76,10.901 16.631,-19.346 17.797,-31.414 1.8398,-19.031 19.06,-28.241 19.111,2.7472 0.0612,37.024 39.813,15.295 35.475,-4.0611 -1.5057,-6.7192 -5.784,-14.364 -2.7472,-20.544 8.8113,-17.932 32.093,-26.934 51.839,-29.981 16.584,-2.5585 33.959,17.867 49.211,10.869 13.137,-6.0275 31.507,-11.56 26.699,-25.191 -22.494,-63.775 -20.502,-84.931 -10.818,-114.58 13.932,-25.46 8.3308,-40.978 30.463,-53.97 51.43,-30.21 33.96,-147.93 25.92,-176.2 -37.75,-97.8 -171.67,-160.68 -304.22,-161.49 l -8e-5,0 z m -134.62,294.79 c 21.679,0.20946 44.44,3.1591 63.545,14.214 53.187,30.776 50.404,46.159 27.233,72.264 -27.984,31.528 -72.338,40.49 -117.41,27.353 -59.11,-17.227 -52.381,-110.72 5.4945,-113.35 6.8366,-0.31151 13.915,-0.54757 21.142,-0.47778 z m 280.1,-0.0478 c 7.4073,-0.0699 15.012,0.16626 22.814,0.47776 57.89,2.312 64.485,96.007 5.375,113.23 -45.076,13.137 -89.31,4.2945 -117.29,-27.233 -23.171,-26.105 -25.954,-41.607 27.233,-72.383 19.105,-11.055 39.65,-13.885 61.872,-14.094 z m -135.09,99.426 c 5.8476,0.12918 9.3768,-0.31227 12.542,5.2556 -0.27519,-0.82618 31.158,52.922 33.803,59.842 9.8778,25.839 -19.507,19.841 -24.606,13.139 -6.2031,-8.9025 -5.8355,-19.252 -21.739,-19.35 -15.903,-0.0978 -14.768,13.607 -21.739,19.828 -5.0981,6.7024 -34.483,12.7 -24.606,-13.139 2.6453,-6.9197 34.078,-60.668 33.803,-59.842 3.8707,-5.2888 6.6941,-5.8625 12.542,-5.7333 z"
           style="fill:#110000"
           id="path2930" />
        <path
           d="m 226.03,675.16 c -4.9665,-10.028 -4.5094,-27.763 -8.4034,-37.329 -7.7967,-19.153 -24.983,-33.238 -22.311,8.6623 0.95362,14.955 3.1595,26.142 7.3416,39.626 3.5739,11.523 2.9288,30.712 2.8964,42.279 -0.13106,46.946 8.3084,55.46 40.952,56.651 l 46.413,17.746 c 44.223,9.9882 41.199,29.477 76.772,29.349 35.573,-0.12771 32.661,-10.613 50.181,-14.333 16.542,-0.94554 32.355,-7.2864 41.635,-24.572 l 17.064,-19.794 c 8.302,-9.3325 20.233,-11.408 32.079,-13.651 9.805,-7.8999 26.803,-10.045 19.794,-31.397 -4.9115,-15.418 -3.7342,-47.072 -3.4127,-76.445 0.37917,-34.636 -17.491,-29.368 -22.524,-5.4603 l -8.1905,38.905 c -5.2909,11.845 -13.138,14.317 -23.889,6.1428 -16.48,-6.9037 -31.701,-10.873 -32.079,19.794 l -10.921,-1.3651 c -5.2198,0.89907 -7.0268,-8.9686 -12.247,-9.8822 -14.669,-5.2192 -15.359,3.5407 -17.785,10.565 l -14.333,0.68253 c -3.4145,-16.46 -5.4944,-10.034 -10.243,-10.051 -5.1276,-0.0153 -3.4184,5.4667 -5.1276,7.3209 l -9.2004,0.68253 c -5.9899,-9.6773 -23.733,-23.04 -33.445,-2.0476 l -10.921,1.3651 c -4.2692,-11.971 -20.897,-18.072 -23.206,3.4127 l -12.968,-0.68257 c -3.815,-4.4917 -1.2401,-13.872 -3.4555,-16.383 -5.895,-6.6801 -16.702,-3.3248 -24.529,-6.141 -7.9511,12.942 -11.717,0.56976 -25.937,-13.651 z"
           style="fill:#110000"
           id="path3758" />
      </g>
      <g
         id="g9166"
         transform="translate(-826.72193,509.0827)">
        <g
           id="spoon"
           transform="matrix(1.2815098,1.7220657,-2.4340626,1.5795398,1527.7708,-154.89869)"
           style="fill:#110000;fill-opacity:1">
          <path
             d="m 194.69,73.144 c 0,-27.543 -22.592,-71.683 -50.457,-71.683 -27.869,0 -50.459,44.139 -50.459,71.683 0,27.546 22.591,49.875 50.459,49.875 27.87,0 50.46,-22.33 50.46,-49.876 z"
             id="path244"
             style="fill:#110000;fill-opacity:1" />
          <path
             d="m 161.06,281.86 c 0.052,2.586 -2.02,4.699 -4.605,4.699 l -23.837,0 c -2.586,0 -4.665,-2.113 -4.621,-4.699 l 2.863,-168.01 c 0.044,-2.586 2.195,-4.7 4.781,-4.7 l 17.189,0 c 2.586,0 4.744,2.114 4.798,4.699 l 3.43,168.01 z"
             id="path246"
             style="fill:#110000;fill-opacity:1" />
        </g>
        <g
           id="fork"
           transform="matrix(1.2486869,-2.1215782,2.3531971,1.3983761,634.11993,205.97011)"
           style="fill:#110000;fill-opacity:1">
          <path
             d="m 45.476,281.86 c 0.009,2.584 -2.099,4.699 -4.684,4.699 l -20.513,0 c -2.585,0 -4.668,-2.115 -4.629,-4.699 l 2.56,-168.01 c 0.039,-2.584 2.186,-4.7 4.771,-4.7 l 17.189,0 c 2.585,0 4.708,2.116 4.717,4.7 l 0.589,168.01 z"
             id="path251"
             style="fill:#110000;fill-opacity:1" />
          <path
             d="m 57.017,0 c -2.109,0 -3.834,1.726 -3.834,3.833 l 0,51.469 c 0,2.109 -1.496,3.833 -3.326,3.833 -1.829,0 -3.326,-1.724 -3.326,-3.833 l 0,-51.469 C 46.531,1.726 44.806,0 42.698,0 L 38.734,0 C 36.625,0 34.9,1.726 34.9,3.833 l 0,51.469 c 0,2.109 -1.495,3.833 -3.323,3.833 -1.828,0 -3.323,-1.724 -3.323,-3.833 l 0,-51.469 C 28.253,1.726 26.528,0 24.42,0 l -3.968,0 c -2.108,0 -3.833,1.726 -3.833,3.833 l 0,51.469 c 0,2.109 -1.496,3.833 -3.324,3.833 -1.828,0 -3.324,-1.724 -3.324,-3.833 l 0,-51.469 C 9.971,1.726 8.246,0 6.137,0 L 3.833,0 C 1.725,0 0,1.726 0,3.833 l 0,113.89 c 0,2.109 1.725,3.833 3.833,3.833 l 55.484,0 c 2.108,0 3.833,-1.725 3.833,-3.833 l 0,-113.89 c 0.001,-2.104 -1.724,-3.83 -3.833,-3.83 l -2.3,0 z"
             id="path253"
             style="fill:#110000;fill-opacity:1" />
        </g>
      </g>
    </g>
  </g>
</svg>
